<svg width="10" height="16" viewBox="0 0 10 16" fill="none" xmlns="http://www.w3.org/2000/svg">
<path d="M7.45629 14.825L1.13754 8.52505C1.06254 8.45005 1.00929 8.3688 0.977786 8.2813C0.946286 8.1938 0.930786 8.10005 0.931286 8.00005C0.931286 7.90005 0.947036 7.8063 0.978536 7.7188C1.01004 7.6313 1.06304 7.55005 1.13754 7.47505L7.45629 1.1563C7.63129 0.981299 7.85004 0.893799 8.11254 0.893799C8.37504 0.893799 8.60004 0.987549 8.78754 1.17505C8.97504 1.36255 9.06879 1.5813 9.06879 1.8313C9.06879 2.0813 8.97504 2.30005 8.78754 2.48755L3.27504 8.00005L8.78754 13.5125C8.96254 13.6875 9.05004 13.9033 9.05004 14.1598C9.05004 14.4163 8.95629 14.638 8.76879 14.825C8.58129 15.0125 8.36254 15.1063 8.11254 15.1063C7.86254 15.1063 7.64379 15.0125 7.45629 14.825Z" fill="black"/>
</svg>
