<svg width="10" height="16" viewBox="0 0 10 16" fill="none" xmlns="http://www.w3.org/2000/svg">
<path d="M2.54371 14.825L8.86246 8.52505C8.93746 8.45005 8.99071 8.3688 9.02221 8.2813C9.05371 8.1938 9.06921 8.10005 9.06871 8.00005C9.06871 7.90005 9.05296 7.8063 9.02146 7.7188C8.98996 7.6313 8.93696 7.55005 8.86246 7.47505L2.54371 1.1563C2.36871 0.981299 2.14996 0.893799 1.88746 0.893799C1.62496 0.893799 1.39996 0.987549 1.21246 1.17505C1.02496 1.36255 0.931213 1.5813 0.931213 1.8313C0.931213 2.0813 1.02496 2.30005 1.21246 2.48755L6.72496 8.00005L1.21246 13.5125C1.03746 13.6875 0.949963 13.9033 0.949963 14.1598C0.949963 14.4163 1.04371 14.638 1.23121 14.825C1.41871 15.0125 1.63746 15.1063 1.88746 15.1063C2.13746 15.1063 2.35621 15.0125 2.54371 14.825Z" fill="black"/>
</svg>
